<svg version="1.1" id="Layer_1" xmlns="http://www.w3.org/2000/svg" xmlns:xlink="http://www.w3.org/1999/xlink" x="0px" y="0px"
	height="100%" width="100%" viewBox="0 0 512 512" enable-background="new 0 0 512 512" xml:space="preserve">
<path fill="#272D35" opacity="1.000000" stroke="none" 
	d="
M323.000000,513.000000 
	C215.359482,513.000000 108.218956,513.000000 1.039217,513.000000 
	C1.039217,342.401123 1.039217,171.802231 1.039217,1.101671 
	C171.557190,1.101671 342.114471,1.101671 512.835876,1.101671 
	C512.835876,171.666534 512.835876,342.333252 512.835876,513.000000 
	C449.802216,513.000000 386.651093,513.000000 323.000000,513.000000 
M169.661133,346.107330 
	C175.122696,346.107330 180.584274,346.107330 186.436600,346.107330 
	C186.436600,351.690796 186.436600,356.739807 186.436600,362.262024 
	C179.959091,362.262024 173.821198,362.197083 167.685425,362.283691 
	C163.229507,362.346588 160.214417,365.263184 159.923080,369.645569 
	C159.812790,371.304596 159.930344,372.977539 159.896286,374.643158 
	C159.802872,379.210968 161.989609,381.369202 166.588821,381.310211 
	C172.753113,381.231140 178.926529,381.486694 185.082047,381.244141 
	C188.717041,381.100891 190.069000,382.148224 190.003769,385.985840 
	C189.919189,390.961792 192.800385,394.369324 197.389313,396.229340 
	C202.062988,398.123657 206.776993,397.444458 209.687943,393.634399 
	C211.798111,390.872437 213.022736,386.723755 213.043335,383.184174 
	C213.274796,343.360199 213.255219,303.534210 213.115631,263.709442 
	C213.100693,259.444733 214.076004,257.813751 218.649445,258.001526 
	C227.466080,258.363464 236.311127,257.983795 245.137451,258.197632 
	C247.078445,258.244598 249.517868,258.951355 250.838455,260.255066 
	C280.595856,289.632782 310.237518,319.127838 339.847107,348.654816 
	C340.795380,349.600464 341.750519,351.125793 341.730225,352.364990 
	C341.537018,364.149231 340.922089,375.928894 340.861206,387.712128 
	C340.817413,396.191772 348.716919,403.889709 357.317993,404.049927 
	C366.979309,404.229919 376.648834,404.220581 386.310638,404.054138 
	C395.207794,403.900879 402.870026,396.322235 403.050568,387.423645 
	C403.249939,377.596375 403.263916,367.758148 403.043365,357.931793 
	C402.861053,349.809082 395.973053,341.995087 388.027130,341.874146 
	C375.769928,341.687592 363.499237,342.501495 351.231262,342.730286 
	C349.980255,342.753632 348.413849,341.979523 347.489746,341.071014 
	C320.526276,314.561249 293.622711,287.990509 266.732758,261.406097 
	C266.006714,260.688263 265.536926,259.711151 264.719543,258.523499 
	C293.027740,258.523499 320.715607,258.523499 348.830048,258.523499 
	C348.830048,260.910919 348.808075,262.883087 348.833740,264.854645 
	C348.971100,275.408142 355.874542,283.576721 366.303162,284.304016 
	C375.754028,284.963074 385.301331,285.079834 394.759369,284.569244 
	C405.114227,284.010223 411.899658,275.984222 411.929749,265.507721 
	C411.953217,257.342773 411.956238,249.177612 411.925812,241.012711 
	C411.885010,230.057968 403.992340,222.162003 392.999847,222.100296 
	C385.168365,222.056320 377.336426,222.088181 369.504669,222.092636 
	C356.485443,222.100037 348.836151,229.410004 348.926971,242.286575 
	C348.955414,246.316818 347.669922,247.355621 343.799500,247.332336 
	C319.471985,247.185974 295.143127,247.268188 270.814728,247.246887 
	C269.472015,247.245712 268.129456,246.994888 266.786835,246.860260 
	C266.494049,246.326508 266.201263,245.792770 265.908478,245.259018 
	C293.181335,218.364807 320.448547,191.464890 347.756409,164.606247 
	C348.508820,163.866180 349.706940,163.114532 350.680878,163.135330 
	C361.967987,163.376495 373.249878,163.916351 384.537354,164.072342 
	C395.440979,164.223053 402.996979,156.586487 403.093292,145.613998 
	C403.166412,137.283005 403.139343,128.950699 403.098694,120.619247 
	C403.045258,109.668388 395.407471,101.585754 384.507629,101.293541 
	C375.849030,101.061424 367.175049,101.083076 358.515503,101.298187 
	C350.042999,101.508644 341.594238,107.980499 341.159393,115.804985 
	C340.495300,127.753815 340.742493,139.786942 341.332245,151.748322 
	C341.481384,154.772858 341.212952,156.564728 339.149292,158.626160 
	C310.266968,187.477631 281.470154,216.414703 252.563782,245.241959 
	C251.439545,246.363113 249.436584,247.124939 247.827423,247.152863 
	C237.832443,247.326294 227.831482,247.143875 217.835815,247.296570 
	C214.342789,247.349930 213.089249,245.990005 213.146088,242.592224 
	C213.274292,234.929245 213.496704,227.245544 213.074097,219.603821 
	C212.810242,214.832565 214.463486,212.755737 218.948166,211.109146 
	C240.753769,203.102936 253.664307,181.066483 249.777390,158.772995 
	C246.495621,139.950394 235.715744,126.767136 217.773651,120.572205 
	C199.254517,114.178047 182.138535,118.036514 167.819229,131.554642 
	C142.082947,155.850952 151.625336,199.061279 185.319229,211.614166 
	C187.790726,212.534958 190.036194,212.880936 190.011017,216.738617 
	C189.807617,247.897644 189.846710,279.058838 189.969986,310.218719 
	C189.985397,314.115692 188.387558,315.086365 184.884720,314.972931 
	C179.225693,314.789703 173.555298,314.840729 167.892105,314.936127 
	C162.365768,315.029205 160.033936,317.376373 159.917664,322.933716 
	C159.816589,327.763794 159.857147,332.598114 159.908295,337.429810 
	C159.985641,344.735962 161.365295,346.067200 169.661133,346.107330 
z"/>
<path fill="#4DCBE4" opacity="1.000000" stroke="none" 
	d="
M169.187592,346.107391 
	C161.365295,346.067200 159.985641,344.735962 159.908295,337.429810 
	C159.857147,332.598114 159.816589,327.763794 159.917664,322.933716 
	C160.033936,317.376373 162.365768,315.029205 167.892105,314.936127 
	C173.555298,314.840729 179.225693,314.789703 184.884720,314.972931 
	C188.387558,315.086365 189.985397,314.115692 189.969986,310.218719 
	C189.846710,279.058838 189.807617,247.897644 190.011017,216.738617 
	C190.036194,212.880936 187.790726,212.534958 185.319229,211.614166 
	C151.625336,199.061279 142.082947,155.850952 167.819229,131.554642 
	C182.138535,118.036514 199.254517,114.178047 217.773651,120.572205 
	C235.715744,126.767136 246.495621,139.950394 249.777390,158.772995 
	C253.664307,181.066483 240.753769,203.102936 218.948166,211.109146 
	C214.463486,212.755737 212.810242,214.832565 213.074097,219.603821 
	C213.496704,227.245544 213.274292,234.929245 213.146088,242.592224 
	C213.089249,245.990005 214.342789,247.349930 217.835815,247.296570 
	C227.831482,247.143875 237.832443,247.326294 247.827423,247.152863 
	C249.436584,247.124939 251.439545,246.363113 252.563782,245.241959 
	C281.470154,216.414703 310.266968,187.477631 339.149292,158.626160 
	C341.212952,156.564728 341.481384,154.772858 341.332245,151.748322 
	C340.742493,139.786942 340.495300,127.753815 341.159393,115.804985 
	C341.594238,107.980499 350.042999,101.508644 358.515503,101.298187 
	C367.175049,101.083076 375.849030,101.061424 384.507629,101.293541 
	C395.407471,101.585754 403.045258,109.668388 403.098694,120.619247 
	C403.139343,128.950699 403.166412,137.283005 403.093292,145.613998 
	C402.996979,156.586487 395.440979,164.223053 384.537354,164.072342 
	C373.249878,163.916351 361.967987,163.376495 350.680878,163.135330 
	C349.706940,163.114532 348.508820,163.866180 347.756409,164.606247 
	C320.448547,191.464890 293.181335,218.364807 265.908478,245.259018 
	C266.201263,245.792770 266.494049,246.326508 266.786835,246.860260 
	C268.129456,246.994888 269.472015,247.245712 270.814728,247.246887 
	C295.143127,247.268188 319.471985,247.185974 343.799500,247.332336 
	C347.669922,247.355621 348.955414,246.316818 348.926971,242.286575 
	C348.836151,229.410004 356.485443,222.100037 369.504669,222.092636 
	C377.336426,222.088181 385.168365,222.056320 392.999847,222.100296 
	C403.992340,222.162003 411.885010,230.057968 411.925812,241.012711 
	C411.956238,249.177612 411.953217,257.342773 411.929749,265.507721 
	C411.899658,275.984222 405.114227,284.010223 394.759369,284.569244 
	C385.301331,285.079834 375.754028,284.963074 366.303162,284.304016 
	C355.874542,283.576721 348.971100,275.408142 348.833740,264.854645 
	C348.808075,262.883087 348.830048,260.910919 348.830048,258.523499 
	C320.715607,258.523499 293.027740,258.523499 264.719543,258.523499 
	C265.536926,259.711151 266.006714,260.688263 266.732758,261.406097 
	C293.622711,287.990509 320.526276,314.561249 347.489746,341.071014 
	C348.413849,341.979523 349.980255,342.753632 351.231262,342.730286 
	C363.499237,342.501495 375.769928,341.687592 388.027130,341.874146 
	C395.973053,341.995087 402.861053,349.809082 403.043365,357.931793 
	C403.263916,367.758148 403.249939,377.596375 403.050568,387.423645 
	C402.870026,396.322235 395.207794,403.900879 386.310638,404.054138 
	C376.648834,404.220581 366.979309,404.229919 357.317993,404.049927 
	C348.716919,403.889709 340.817413,396.191772 340.861206,387.712128 
	C340.922089,375.928894 341.537018,364.149231 341.730225,352.364990 
	C341.750519,351.125793 340.795380,349.600464 339.847107,348.654816 
	C310.237518,319.127838 280.595856,289.632782 250.838455,260.255066 
	C249.517868,258.951355 247.078445,258.244598 245.137451,258.197632 
	C236.311127,257.983795 227.466080,258.363464 218.649445,258.001526 
	C214.076004,257.813751 213.100693,259.444733 213.115631,263.709442 
	C213.255219,303.534210 213.274796,343.360199 213.043335,383.184174 
	C213.022736,386.723755 211.798111,390.872437 209.687943,393.634399 
	C206.776993,397.444458 202.062988,398.123657 197.389313,396.229340 
	C192.800385,394.369324 189.919189,390.961792 190.003769,385.985840 
	C190.069000,382.148224 188.717041,381.100891 185.082047,381.244141 
	C178.926529,381.486694 172.753113,381.231140 166.588821,381.310211 
	C161.989609,381.369202 159.802872,379.210968 159.896286,374.643158 
	C159.930344,372.977539 159.812790,371.304596 159.923080,369.645569 
	C160.214417,365.263184 163.229507,362.346588 167.685425,362.283691 
	C173.821198,362.197083 179.959091,362.262024 186.436600,362.262024 
	C186.436600,356.739807 186.436600,351.690796 186.436600,346.107330 
	C180.584274,346.107330 175.122696,346.107330 169.187592,346.107391 
M225.821991,157.019684 
	C225.247498,155.822037 224.746246,154.582367 224.087036,153.433319 
	C218.372467,143.472214 206.712952,138.578705 195.405136,141.363403 
	C184.771469,143.982086 176.260269,154.091064 176.010025,164.589890 
	C175.747147,175.618683 180.495361,183.965866 190.384872,188.780350 
	C200.037262,193.479401 209.592346,192.473297 217.941620,185.637085 
	C226.846146,178.346222 229.095871,168.758392 225.821991,157.019684 
M351.091766,144.126755 
	C351.415039,151.109024 353.263702,153.776825 358.411285,153.865158 
	C367.222809,154.016388 376.040070,153.984009 384.852570,153.860336 
	C389.401855,153.796494 392.180542,150.940857 392.355804,146.712311 
	C392.733734,137.595764 392.715424,128.446259 392.416687,119.324745 
	C392.252472,114.311180 389.333496,111.965492 384.237427,111.913986 
	C375.923004,111.829948 367.605499,111.789299 359.292419,111.923180 
	C353.689423,112.013435 351.150665,114.710716 351.115173,120.254105 
	C351.066162,127.903862 351.095337,135.554108 351.091766,144.126755 
M376.452820,393.844055 
	C378.782837,393.841156 381.113159,393.860443 383.442841,393.831116 
	C390.027527,393.748291 392.162140,391.859650 392.282990,385.256073 
	C392.441193,376.608826 392.366547,367.954010 392.211273,359.305664 
	C392.124115,354.450867 389.593536,352.024475 384.704437,351.963806 
	C376.550568,351.862579 368.394562,351.901917 360.239624,351.930542 
	C353.903381,351.952789 351.324005,354.236359 351.187714,360.467865 
	C351.005798,368.785339 351.033813,377.111359 351.169006,385.430481 
	C351.260651,391.069153 353.883148,393.653320 359.490356,393.800751 
	C364.812561,393.940735 370.141052,393.839325 376.452820,393.844055 
M374.553741,274.116150 
	C380.884125,274.121124 387.215973,274.210785 393.544464,274.103607 
	C398.377533,274.021729 401.112457,271.514313 401.199127,266.772675 
	C401.360443,257.946533 401.343109,249.113098 401.182312,240.286667 
	C401.094452,235.463531 398.410004,232.844330 393.754639,232.796402 
	C384.926331,232.705521 376.096100,232.727676 367.267273,232.790527 
	C362.927521,232.821426 360.241119,235.049057 360.163361,239.460022 
	C360.004822,248.452972 359.976349,257.453400 360.162872,266.445190 
	C360.265594,271.396301 363.193329,273.989624 368.080750,274.114716 
	C369.911987,274.161591 371.745514,274.118317 374.553741,274.116150 
z"/>
<path fill="#262E37" opacity="1.000000" stroke="none" 
	d="
M225.934692,157.412125 
	C229.095871,168.758392 226.846146,178.346222 217.941620,185.637085 
	C209.592346,192.473297 200.037262,193.479401 190.384872,188.780350 
	C180.495361,183.965866 175.747147,175.618683 176.010025,164.589890 
	C176.260269,154.091064 184.771469,143.982086 195.405136,141.363403 
	C206.712952,138.578705 218.372467,143.472214 224.087036,153.433319 
	C224.746246,154.582367 225.247498,155.822037 225.934692,157.412125 
z"/>
<path fill="#262F38" opacity="1.000000" stroke="none" 
	d="
M351.091370,143.665451 
	C351.095337,135.554108 351.066162,127.903862 351.115173,120.254105 
	C351.150665,114.710716 353.689423,112.013435 359.292419,111.923180 
	C367.605499,111.789299 375.923004,111.829948 384.237427,111.913986 
	C389.333496,111.965492 392.252472,114.311180 392.416687,119.324745 
	C392.715424,128.446259 392.733734,137.595764 392.355804,146.712311 
	C392.180542,150.940857 389.401855,153.796494 384.852570,153.860336 
	C376.040070,153.984009 367.222809,154.016388 358.411285,153.865158 
	C353.263702,153.776825 351.415039,151.109024 351.091370,143.665451 
z"/>
<path fill="#262F37" opacity="1.000000" stroke="none" 
	d="
M375.959808,393.844055 
	C370.141052,393.839325 364.812561,393.940735 359.490356,393.800751 
	C353.883148,393.653320 351.260651,391.069153 351.169006,385.430481 
	C351.033813,377.111359 351.005798,368.785339 351.187714,360.467865 
	C351.324005,354.236359 353.903381,351.952789 360.239624,351.930542 
	C368.394562,351.901917 376.550568,351.862579 384.704437,351.963806 
	C389.593536,352.024475 392.124115,354.450867 392.211273,359.305664 
	C392.366547,367.954010 392.441193,376.608826 392.282990,385.256073 
	C392.162140,391.859650 390.027527,393.748291 383.442841,393.831116 
	C381.113159,393.860443 378.782837,393.841156 375.959808,393.844055 
z"/>
<path fill="#262E36" opacity="1.000000" stroke="none" 
	d="
M374.065857,274.116150 
	C371.745514,274.118317 369.911987,274.161591 368.080750,274.114716 
	C363.193329,273.989624 360.265594,271.396301 360.162872,266.445190 
	C359.976349,257.453400 360.004822,248.452972 360.163361,239.460022 
	C360.241119,235.049057 362.927521,232.821426 367.267273,232.790527 
	C376.096100,232.727676 384.926331,232.705521 393.754639,232.796402 
	C398.410004,232.844330 401.094452,235.463531 401.182312,240.286667 
	C401.343109,249.113098 401.360443,257.946533 401.199127,266.772675 
	C401.112457,271.514313 398.377533,274.021729 393.544464,274.103607 
	C387.215973,274.210785 380.884125,274.121124 374.065857,274.116150 
z"/>
</svg>